<?xml version="1.0" standalone="no"?>
<!DOCTYPE svg PUBLIC "-//W3C//DTD SVG 20010904//EN"
 "http://www.w3.org/TR/2001/REC-SVG-20010904/DTD/svg10.dtd">
<svg version="1.0" xmlns="http://www.w3.org/2000/svg"
 width="1262.000000pt" height="1262.000000pt" viewBox="0 0 1262.000000 1262.000000"
 preserveAspectRatio="xMidYMid meet">
<metadata>
Created by potrace 1.11, written by Peter Selinger 2001-2013
</metadata>
<g transform="translate(0.000000,1262.000000) scale(0.100000,-0.100000)"
fill="#000000" stroke="none">
<path d="M2575 11528 c-2 -7 -56 -260 -119 -563 -63 -302 -223 -1067 -356
-1700 -132 -632 -270 -1292 -306 -1465 -174 -843 -346 -1667 -351 -1683 -4
-17 55 -18 1489 -14 1301 3 1511 5 1634 20 429 49 686 117 936 244 150 76 265
160 388 283 313 313 499 756 500 1191 1 472 -265 849 -732 1036 -59 24 -114
43 -122 43 -37 0 -20 18 32 35 166 52 378 166 519 280 80 64 201 198 255 281
256 397 258 982 6 1393 -64 104 -223 268 -323 333 -278 182 -584 264 -1078
288 -316 15 -2367 13 -2372 -2z m2308 -918 c119 -12 192 -32 280 -78 127 -66
220 -185 248 -320 6 -33 9 -100 7 -162 -13 -293 -191 -522 -483 -619 -219 -73
-382 -85 -1100 -82 -324 1 -591 3 -592 5 -1 1 57 287 130 634 l132 632 640 0
c352 0 684 -5 738 -10z m-225 -2234 c192 -33 319 -94 419 -200 81 -85 117
-148 143 -252 40 -156 21 -303 -63 -474 -45 -93 -62 -116 -147 -201 -85 -86
-107 -102 -200 -147 -114 -55 -185 -74 -372 -98 -170 -23 -1701 -34 -1694 -12
3 7 39 180 81 383 42 204 106 512 141 685 36 173 67 321 69 327 3 10 170 12
767 9 644 -3 777 -6 856 -20z"/>
<path d="M8825 5897 c-187 -331 -491 -870 -675 -1197 -338 -598 -627 -1112
-1008 -1790 -113 -201 -213 -376 -222 -390 -9 -14 -39 -65 -65 -115 -27 -49
-114 -205 -193 -345 -369 -650 -703 -1242 -708 -1255 -5 -13 68 -15 600 -15
l606 0 18 29 c9 15 165 299 347 630 l329 601 1128 0 1128 0 5 -22 c3 -13 43
-284 90 -603 47 -319 88 -592 91 -608 l6 -27 554 0 c539 0 554 1 554 19 0 11
-129 813 -286 1783 -362 2232 -454 2805 -551 3413 l-79 490 -664 2 -665 3
-340 -603z m905 -1247 c39 -261 77 -515 85 -565 33 -203 155 -1068 152 -1072
-2 -2 -360 -2 -795 -1 l-792 3 56 100 c145 260 266 481 324 590 35 66 71 131
80 145 10 14 190 340 400 725 211 385 385 705 389 710 3 6 11 -28 18 -75 7
-47 44 -299 83 -560z"/>
</g>
</svg>
